<svg width="56" height="56" viewBox="0 0 56 56" fill="none" xmlns="http://www.w3.org/2000/svg">
<path d="M29.1663 16.3333C29.1663 13.7433 31.243 11.6667 33.833 11.6667H41.9997C44.5663 11.6667 46.6663 13.7667 46.6663 16.3333V21.3733C43.9597 22.33 41.9997 24.8967 41.9997 27.93V32.6667H29.1663V16.3333ZM13.9997 27.9067V32.6667H26.833V16.3333C26.833 13.7433 24.7563 11.6667 22.1663 11.6667H13.9997C11.433 11.6667 9.33301 13.7667 9.33301 16.3333V21.35C12.0397 22.3067 13.9997 24.8967 13.9997 27.9067ZM48.2063 23.4033C45.9197 23.7767 44.333 25.9467 44.333 28.28V35H11.6663V28C11.6663 26.7623 11.1747 25.5753 10.2995 24.7002C9.42434 23.825 8.23735 23.3333 6.99967 23.3333C5.762 23.3333 4.57501 23.825 3.69984 24.7002C2.82467 25.5753 2.33301 26.7623 2.33301 28V39.6667C2.33301 42.2333 4.43301 44.3333 6.99967 44.3333V49H11.6663V44.3333H44.333V49H48.9997V44.3333C51.5663 44.3333 53.6663 42.2333 53.6663 39.6667V28C53.6663 25.1767 51.123 22.9133 48.2063 23.4033Z" fill="#fffff"/>
</svg>
