<svg width="56" height="56" viewBox="0 0 56 56" fill="none" xmlns="http://www.w3.org/2000/svg">
<path d="M44.3128 4.66666H21.0238C18.4315 4.66666 16.3338 6.76433 16.3338 9.35667V22.5097L5.36248 33.341C5.03375 33.6661 4.80901 34.0816 4.7168 34.5346C4.62459 34.9877 4.66905 35.4579 4.84455 35.8857C5.02005 36.3134 5.31867 36.6794 5.70252 36.9371C6.08636 37.1949 6.53813 37.3328 7.00048 37.3333V49C7.00048 49.6188 7.24631 50.2123 7.68389 50.6499C8.12148 51.0875 8.71497 51.3333 9.33381 51.3333H46.6671C47.286 51.3333 47.8795 51.0875 48.3171 50.6499C48.7546 50.2123 49.0005 49.6188 49.0005 49V9.35433C49.0005 6.76433 46.9051 4.66666 44.3128 4.66666ZM25.4851 35.259V46.6667H11.6671V33.6747L18.6368 26.7937L25.4851 33.8007V35.259ZM30.3338 21H25.6671V16.3333H30.3338V21ZM39.6671 39.6667H35.0005V35H39.6671V39.6667ZM39.6671 30.3333H35.0005V25.6667H39.6671V30.3333ZM39.6671 21H35.0005V16.3333H39.6671V21Z" fill="#fffff"/>
<path d="M16.333 35H20.9997V39.6667H16.333V35Z" fill="#fffff"/>
</svg>
