<svg width="56" height="56" viewBox="0 0 56 56" fill="none" xmlns="http://www.w3.org/2000/svg">
<path d="M32.1607 35.4013L37.1097 30.4523L51.1004 44.443L46.1514 49.392L32.1607 35.4013ZM40.8337 23.3333C45.3371 23.3333 49.0004 19.67 49.0004 15.1666C49.0004 13.8133 48.6271 12.5533 48.0437 11.4333L41.7437 17.7333L38.2671 14.2566L44.5671 7.95663C43.4471 7.3733 42.1871 6.99996 40.8337 6.99996C36.3304 6.99996 32.6671 10.6633 32.6671 15.1666C32.6671 16.1233 32.8537 17.0333 33.1571 17.8733L28.8404 22.19L24.6871 18.0366L26.3437 16.38L23.0537 13.09L28.0004 8.1433C26.6879 6.83243 24.9087 6.09612 23.0537 6.09612C21.1987 6.09612 19.4196 6.83243 18.1071 8.1433L9.84706 16.4033L13.1371 19.6933H6.55706L4.90039 21.35L13.1604 29.61L14.8171 27.9533V21.35L18.1071 24.64L19.7637 22.9833L23.9171 27.1366L6.62706 44.4266L11.5737 49.3733L38.1271 22.8433C38.9671 23.1466 39.8771 23.3333 40.8337 23.3333Z" fill="#E5E5E5;"/>
</svg>
